<?xml version="1.0" standalone="no"?>
<!DOCTYPE svg PUBLIC "-//W3C//DTD SVG 20010904//EN"
 "http://www.w3.org/TR/2001/REC-SVG-20010904/DTD/svg10.dtd">
<svg version="1.0" xmlns="http://www.w3.org/2000/svg"
 width="100" height="70" viewBox="0 0 2692.000000 1234.000000"
 preserveAspectRatio="xMidYMid meet">

<g transform="translate(0.000000,1234.000000) scale(0.100000,-0.100000)"
fill="#000000" stroke="none">
<path d="M23598 11059 c-7 -5 -27 -9 -45 -9 -28 0 -33 -4 -42 -36 -5 -19 -8
-41 -6 -47 2 -7 6 -24 9 -38 4 -20 14 -28 37 -33 27 -5 30 -9 27 -38 -4 -43
-42 -64 -76 -42 -12 8 -27 12 -32 9 -13 -8 -13 -42 0 -50 6 -3 10 -19 10 -34
0 -58 43 -68 65 -15 15 36 31 40 48 12 8 -11 5 -23 -10 -42 -23 -29 -19 -72
11 -118 9 -14 15 -32 14 -39 -4 -16 66 -51 87 -43 8 3 15 17 15 30 0 31 -20
74 -34 73 -25 -3 -35 2 -41 20 -12 40 28 73 42 34 13 -36 23 -42 53 -31 22 7
30 17 32 41 2 24 9 33 28 37 33 8 41 49 11 57 -28 7 -26 17 5 42 l27 21 -24
46 c-26 50 -44 63 -62 45 -21 -21 -37 -13 -27 14 10 26 -3 80 -26 104 -19 21
-80 40 -96 30z"/>
<path d="M19716 10831 c-16 -25 -42 -30 -75 -14 -30 15 -36 15 -83 -2 -40 -14
-82 -18 -197 -18 -129 -1 -147 -3 -159 -19 -15 -21 -42 -23 -89 -6 -28 10 -39
10 -66 -4 -25 -13 -56 -16 -147 -14 -97 3 -125 0 -180 -19 -48 -16 -73 -19
-92 -13 -21 7 -33 5 -56 -12 -24 -18 -34 -20 -50 -11 -36 19 -62 12 -119 -34
-30 -25 -60 -45 -67 -45 -7 0 -18 -11 -24 -25 -15 -33 -36 -33 -30 0 7 36 -3
38 -44 10 -72 -49 -75 -120 -6 -157 22 -13 50 -29 62 -35 29 -17 71 -16 86 2
8 9 29 14 63 13 127 -3 372 15 393 29 15 10 44 14 88 12 51 -2 70 2 85 15 12
11 27 15 40 11 37 -11 156 -13 169 -2 7 5 50 11 95 12 45 2 109 10 142 19 34
8 74 16 90 16 54 1 128 2 285 1 85 0 159 3 164 7 21 12 111 19 130 10 50 -27
194 -37 341 -24 96 9 117 9 180 -1 67 -10 85 -18 85 -38 0 -7 12 -22 27 -33
l26 -19 -22 -71 c-23 -71 -22 -92 4 -92 16 0 31 -43 20 -59 -4 -8 -12 -8 -25
-1 -51 28 -55 -10 -4 -54 32 -28 35 -36 37 -86 2 -55 2 -55 -28 -55 -48 0 -44
-29 9 -67 45 -31 57 -48 35 -48 -6 0 -19 5 -30 11 -26 13 -49 -4 -42 -31 3
-11 0 -27 -7 -35 -10 -12 -10 -19 -2 -27 15 -15 16 -55 2 -63 -7 -4 -7 -11 -2
-18 5 -7 8 -55 6 -108 -3 -86 -1 -99 16 -114 26 -24 25 -37 -6 -74 -19 -23
-23 -35 -16 -48 6 -9 6 -26 2 -37 -25 -65 -33 -116 -34 -213 -1 -90 -4 -110
-18 -121 -23 -17 -24 -101 -2 -165 14 -42 14 -52 2 -85 -18 -48 -12 -80 18
-94 27 -12 37 -40 32 -84 -2 -23 -9 -30 -36 -35 -43 -9 -44 -10 -28 -40 7 -14
16 -55 20 -91 l6 -66 -35 -21 c-33 -19 -47 -53 -27 -65 5 -3 8 -31 8 -63 -1
-59 -3 -62 -46 -52 -12 3 -14 -7 -12 -61 3 -54 7 -68 27 -85 18 -15 23 -27 19
-43 -5 -16 -2 -22 10 -22 26 0 88 29 112 51 l22 21 47 -21 c61 -27 71 -26 91
4 9 14 25 25 35 25 11 0 19 7 19 15 0 8 -7 15 -15 15 -8 0 -15 8 -15 17 0 13
3 14 11 6 9 -9 19 3 40 48 32 68 34 81 17 109 -10 15 -9 23 7 39 15 18 16 25
7 47 -18 38 -15 53 13 60 28 7 30 13 14 48 -14 30 1 56 32 56 24 0 25 36 4 87
-8 19 -15 57 -15 84 0 30 -6 53 -15 63 -12 12 -13 20 -5 35 5 11 10 29 10 41
0 11 12 32 27 46 21 20 26 33 25 63 -3 40 -70 181 -103 217 -10 11 -19 30 -19
42 0 12 -9 26 -20 32 -11 6 -17 16 -14 25 8 20 31 19 42 -2 23 -40 48 6 55 99
1 15 11 34 22 42 20 16 20 16 -3 34 -22 17 -52 65 -52 83 0 5 11 11 25 15 21
5 25 12 25 45 0 21 -4 39 -10 39 -20 0 -10 49 14 68 31 24 33 38 13 83 -13 30
-14 42 -5 67 10 27 9 34 -7 52 -14 16 -17 26 -9 38 14 25 5 70 -14 75 -13 4
-12 5 4 6 12 0 27 -6 34 -14 18 -22 35 -19 49 9 10 17 10 29 2 44 -6 11 -11
32 -11 45 0 18 -8 28 -29 37 -16 6 -36 26 -45 43 -19 40 -5 58 23 33 22 -20
51 -15 51 8 0 9 -16 30 -35 47 -43 39 -44 54 -4 74 38 20 33 41 -10 37 -21 -2
-33 2 -37 13 -8 19 23 55 47 55 10 0 27 13 39 30 l21 29 -26 17 c-24 16 -25
17 -8 45 15 25 15 33 5 50 -8 12 -10 33 -6 53 5 32 4 34 -28 40 -20 4 -48 21
-68 41 -23 24 -43 35 -62 35 -16 0 -41 8 -55 17 -26 17 -119 25 -280 23 -28
-1 -54 4 -58 10 -8 13 -45 13 -45 0 0 -22 -49 -20 -105 4 l-58 26 -42 -20
c-52 -25 -166 -27 -225 -4 -28 11 -53 14 -78 9 -47 -9 -109 -7 -147 5 -54 16
-132 22 -139 11z m1324 -391 c0 -5 -9 -14 -20 -20 -22 -12 -27 -1 -8 18 14 14
28 16 28 2z m-20 -197 c0 -18 -6 -23 -25 -23 -28 0 -61 41 -51 65 9 25 76 -12
76 -42z m-5 -363 c-5 -8 -11 -8 -17 -2 -6 6 -7 16 -3 22 5 8 11 8 17 2 6 -6 7
-16 3 -22z m-25 -100 c0 -5 -7 -10 -16 -10 -8 0 -12 5 -9 10 3 6 10 10 16 10
5 0 9 -4 9 -10z m-44 -122 c-20 -11 -44 1 -25 12 6 5 19 6 27 3 12 -5 12 -7
-2 -15z m64 -905 c0 -12 -33 -43 -47 -43 -14 0 -16 10 -7 34 6 15 54 23 54 9z"/>
<path d="M5040 10633 c-8 -3 -22 -14 -31 -25 -13 -17 -19 -18 -37 -9 -17 9
-28 8 -51 -4 -17 -8 -37 -15 -46 -15 -21 0 -19 -13 5 -35 19 -17 28 -74 14
-88 -4 -3 -24 4 -46 16 -27 15 -41 31 -45 50 -3 16 -13 31 -22 34 -9 2 -24 9
-33 14 -30 15 -74 10 -93 -12 -16 -16 -26 -19 -57 -14 -28 5 -46 2 -63 -9 -19
-12 -30 -14 -44 -6 -28 15 -35 13 -46 -12 -8 -18 -20 -24 -54 -26 -24 -2 -49
2 -54 7 -15 15 -69 13 -91 -4 -14 -11 -17 -22 -12 -47 6 -32 -6 -123 -17 -134
-20 -21 -79 49 -97 115 -3 14 -13 26 -21 26 -8 1 -31 9 -52 20 -33 16 -41 17
-59 6 -37 -23 -76 -30 -181 -32 -76 -1 -106 -5 -120 -17 -14 -12 -22 -13 -43
-3 -22 10 -31 9 -52 -5 -20 -13 -38 -15 -88 -10 -50 5 -71 3 -96 -10 -24 -13
-65 -18 -153 -21 -124 -4 -191 -20 -230 -55 -19 -16 -23 -16 -44 -2 -19 14
-32 14 -89 4 -70 -12 -138 -24 -184 -34 -15 -3 -30 -2 -33 4 -10 15 -55 12
-61 -5 -7 -17 -59 -21 -69 -5 -10 16 -41 11 -59 -9 -14 -16 -23 -18 -42 -11
-15 6 -34 6 -51 -1 -21 -8 -30 -6 -48 11 -29 27 -39 25 -73 -11 -25 -27 -33
-30 -66 -24 -21 4 -50 18 -66 31 -34 29 -38 29 -65 4 -14 -13 -50 -24 -112
-34 -93 -15 -153 -38 -153 -57 0 -6 -16 -1 -36 10 -32 19 -42 21 -88 12 -51
-11 -102 -13 -186 -8 l-45 2 -2 -40 c-6 -95 -16 -141 -39 -172 -27 -35 -23
-60 9 -65 18 -2 21 -9 19 -32 -2 -16 2 -32 8 -36 17 -10 92 41 85 57 -3 7 -7
19 -10 26 -3 7 13 22 39 37 l45 24 24 -24 c13 -14 32 -30 42 -36 28 -16 13
-46 -20 -38 -59 15 -60 14 -63 -58 -2 -41 -8 -71 -17 -78 -10 -9 -12 -28 -8
-80 6 -66 5 -68 -18 -72 -20 -2 -25 -10 -27 -43 -2 -22 -8 -46 -14 -53 -8 -9
-6 -22 7 -46 10 -18 15 -41 12 -51 -6 -15 -10 -14 -38 9 -17 14 -35 24 -40 20
-16 -9 -10 -78 10 -110 12 -20 16 -36 10 -45 -17 -27 -10 -66 16 -83 32 -21
31 -33 -1 -63 -30 -28 -28 -53 6 -70 25 -12 50 -40 50 -56 0 -4 -10 -8 -22 -7
-42 4 -48 0 -63 -36 -22 -53 -19 -72 15 -89 32 -17 36 -25 20 -41 -6 -6 -13
-36 -15 -67 -3 -42 0 -57 11 -61 19 -7 18 -30 -2 -47 -12 -10 -14 -25 -10 -68
2 -31 6 -80 8 -109 3 -39 9 -58 23 -68 16 -12 17 -18 8 -33 -24 -38 -18 -191
7 -191 18 0 42 -63 37 -99 -2 -20 0 -46 6 -57 7 -17 3 -32 -17 -66 -14 -25
-26 -50 -26 -55 0 -6 16 -34 35 -63 41 -61 42 -72 13 -112 -20 -30 -21 -31 -3
-44 10 -7 22 -15 26 -16 9 -3 11 -26 6 -88 -2 -31 1 -35 27 -40 23 -4 32 -14
47 -53 16 -41 17 -48 4 -53 -21 -8 -19 -28 5 -49 25 -23 25 -41 0 -48 -27 -7
-40 -47 -40 -126 0 -72 15 -102 38 -79 10 10 19 5 42 -20 16 -18 36 -32 44
-32 8 0 20 -9 26 -19 8 -16 6 -21 -12 -27 -26 -8 -60 -48 -69 -80 -5 -17 -1
-24 18 -33 l25 -11 -20 -33 c-13 -23 -16 -40 -11 -55 5 -12 4 -24 -1 -27 -6
-4 -10 -17 -10 -31 0 -19 8 -28 38 -40 27 -10 44 -26 55 -49 14 -28 22 -35 46
-35 17 0 41 -5 54 -11 32 -14 210 4 242 25 12 8 36 14 52 14 17 -1 35 2 42 6
7 4 19 2 27 -5 11 -9 18 -9 26 -1 17 17 70 15 95 -3 34 -24 73 -10 73 26 0 35
14 37 75 7 41 -20 49 -21 78 -9 29 12 47 16 105 20 11 0 24 12 30 26 14 31 33
32 80 0 52 -34 151 -43 212 -20 43 17 56 18 110 15 46 -3 123 19 137 40 18 26
39 26 53 0 12 -23 77 -28 109 -8 15 9 25 9 46 0 20 -9 37 -10 66 -2 27 8 51 8
77 0 30 -8 50 -6 88 5 30 9 65 13 90 9 28 -4 51 -1 71 10 34 17 43 34 43 77 0
37 19 45 59 24 25 -13 31 -21 29 -43 -3 -24 0 -27 32 -30 19 -1 52 -7 73 -14
29 -9 42 -8 62 2 32 17 39 9 40 -48 0 -36 -5 -52 -22 -67 -13 -11 -33 -41 -46
-67 -23 -46 -24 -48 -6 -75 23 -35 25 -92 3 -108 -10 -6 -16 -24 -16 -41 4
-121 8 -146 25 -159 26 -19 21 -51 -14 -76 -28 -20 -30 -25 -24 -58 14 -72 18
-107 17 -143 -1 -21 -1 -65 -1 -98 -1 -33 -1 -70 -1 -82 0 -13 -3 -49 -6 -81
-5 -52 -3 -61 17 -83 21 -23 22 -27 10 -73 -7 -28 -12 -74 -12 -103 2 -93 2
-103 -2 -123 -2 -11 -7 -30 -11 -43 -6 -18 -2 -27 17 -43 23 -17 24 -23 15
-55 -5 -20 -7 -46 -4 -59 4 -14 -1 -28 -13 -39 -17 -16 -18 -20 -5 -44 18 -35
18 -79 -2 -151 -17 -58 -16 -60 6 -97 16 -29 20 -47 16 -76 -4 -24 0 -52 10
-78 9 -22 14 -46 11 -54 -3 -7 3 -28 14 -46 16 -25 17 -35 8 -47 -11 -12 -14
-12 -21 1 -11 19 -39 21 -56 4 -15 -15 -16 -65 -1 -74 6 -3 9 -17 6 -30 -2
-13 2 -29 9 -35 18 -15 18 -35 -3 -69 -15 -26 -15 -29 2 -46 14 -14 16 -28 12
-67 -4 -27 -12 -56 -19 -65 -11 -13 -10 -14 14 -9 l26 7 -19 -40 c-20 -42 -18
-60 7 -60 15 0 70 -70 85 -108 5 -13 18 -26 28 -29 25 -6 33 -27 22 -55 -5
-14 -4 -30 2 -39 8 -13 3 -26 -21 -57 -20 -24 -30 -46 -26 -56 3 -9 9 -16 13
-16 3 0 12 -9 18 -19 11 -17 7 -25 -27 -61 -39 -41 -40 -42 -24 -71 9 -19 13
-41 9 -63 -4 -20 -2 -36 4 -40 23 -14 11 -64 -25 -107 -29 -35 -35 -48 -30
-73 4 -17 11 -32 16 -34 6 -2 10 -11 10 -19 0 -8 11 -24 25 -35 14 -11 25 -30
25 -43 0 -38 11 -55 34 -55 37 0 38 -12 6 -41 -35 -32 -38 -56 -10 -92 11 -14
20 -33 20 -44 1 -10 7 -29 15 -43 8 -14 14 -39 15 -57 0 -22 6 -33 19 -38 51
-16 8 -75 -55 -75 -18 0 -35 -4 -38 -8 -3 -5 -49 -12 -103 -15 -54 -3 -116
-12 -138 -20 -29 -10 -50 -11 -74 -5 -23 7 -47 6 -70 -1 -36 -10 -117 -23
-136 -21 -5 1 -35 3 -66 5 -31 2 -60 5 -65 7 -5 2 -38 -6 -72 -16 -51 -16 -67
-17 -80 -8 -34 24 -45 25 -61 4 -19 -26 -72 -44 -92 -31 -8 5 -36 9 -62 9 -27
0 -70 9 -97 21 l-49 21 -42 -35 c-30 -26 -48 -35 -68 -32 -86 13 -135 13 -249
0 -167 -20 -193 -25 -220 -42 -12 -7 -27 -11 -32 -8 -5 3 -34 1 -66 -3 -40 -7
-69 -6 -100 4 -46 14 -73 10 -87 -12 -4 -7 -24 -16 -45 -20 -20 -3 -47 -12
-59 -20 -12 -8 -34 -14 -47 -14 -14 0 -60 -12 -102 -26 -51 -17 -86 -23 -106
-19 -47 11 -115 -4 -147 -31 -22 -18 -36 -23 -55 -18 -30 7 -82 -14 -111 -46
-10 -11 -25 -20 -33 -20 -29 0 -92 -34 -98 -52 -6 -20 -34 -24 -51 -7 -7 7
-19 9 -28 5 -22 -8 -3 -43 33 -58 15 -7 35 -18 45 -27 14 -12 23 -12 56 -1 41
13 126 7 136 -10 3 -5 19 -7 35 -4 22 5 43 -2 87 -29 63 -38 136 -57 147 -38
4 6 16 11 26 11 11 0 28 10 40 22 l20 22 0 -27 c0 -35 20 -46 38 -19 11 16 20
20 43 15 46 -9 39 30 -10 63 -43 28 -53 44 -41 64 5 8 19 10 41 6 89 -17 119
-18 134 -6 21 18 95 -17 109 -52 8 -18 16 -24 24 -19 13 8 6 57 -13 104 -7 16
-4 18 16 15 17 -2 24 -10 24 -24 1 -12 22 -42 47 -68 52 -52 84 -58 125 -26
31 24 56 26 73 5 7 -8 26 -15 43 -15 16 0 44 -9 63 -20 35 -22 50 -15 39 19
-8 27 2 30 72 19 51 -8 66 -6 87 7 19 13 29 14 45 6 32 -18 51 -13 51 12 0 29
18 47 46 47 35 0 55 -11 65 -36 10 -29 34 -31 50 -5 11 17 14 17 40 2 24 -13
32 -14 49 -4 11 7 30 13 43 13 13 0 36 13 52 30 29 31 69 40 78 18 6 -17 189
-16 195 1 6 18 37 13 57 -9 24 -27 53 -22 78 12 23 31 17 49 -8 24 -9 -9 -30
-16 -46 -16 -24 0 -29 4 -29 24 0 51 12 86 31 86 21 0 89 38 89 51 0 4 17 13
38 18 31 9 46 7 97 -13 33 -13 79 -28 103 -34 38 -8 46 -7 62 10 23 25 54 20
58 -10 5 -37 39 -27 62 17 25 50 33 55 55 31 17 -19 18 -19 35 3 l18 22 53
-19 c28 -11 67 -19 86 -18 28 1 37 -4 51 -29 17 -30 18 -30 72 -13 9 3 22 -7
32 -26 9 -16 24 -30 32 -30 25 0 66 22 66 37 0 7 10 14 23 14 53 3 109 19 130
37 14 12 22 14 35 5 10 -6 36 -14 58 -17 36 -6 41 -4 62 24 12 16 29 30 37 30
17 0 34 -30 28 -47 -7 -21 43 -26 70 -8 24 16 27 15 47 -5 23 -23 45 -21 90 8
14 9 50 17 80 18 99 4 155 10 167 17 6 4 23 3 38 -3 23 -9 31 -5 71 32 42 39
51 43 101 43 39 1 57 -3 63 -14 8 -14 11 -13 30 7 28 30 37 28 57 -15 16 -35
22 -38 62 -41 63 -5 84 3 103 38 l17 30 80 -4 c86 -5 101 -9 101 -32 0 -8 7
-14 15 -14 8 0 15 6 15 14 0 23 30 27 58 7 46 -33 67 -34 93 -6 28 29 57 32
90 7 57 -42 72 -45 118 -22 40 22 43 22 84 6 67 -25 79 -21 109 33 28 52 95
96 120 80 20 -13 38 -10 38 6 0 20 46 30 77 16 21 -10 29 -9 43 4 21 19 39 19
64 0 11 -8 32 -15 46 -15 14 0 31 -5 37 -11 14 -14 73 6 73 24 0 8 3 8 11 0 9
-9 20 -7 45 5 19 8 34 19 34 24 0 4 16 14 35 22 27 12 35 21 35 40 0 15 -8 30
-20 36 -32 17 -24 27 26 35 39 6 50 3 67 -13 18 -18 22 -19 41 -7 18 12 29 12
66 1 36 -11 46 -18 48 -39 3 -23 24 -36 60 -37 21 0 13 38 -14 59 -19 15 -25
27 -22 48 l3 28 70 -4 c38 -2 79 -10 91 -17 13 -9 32 -12 53 -8 24 5 39 2 61
-15 41 -30 63 -29 48 3 -6 14 -8 32 -5 40 11 27 36 18 51 -19 10 -23 22 -35
35 -35 16 0 20 -8 23 -37 2 -30 8 -38 28 -43 17 -4 25 -13 26 -30 1 -13 9 -29
18 -35 9 -7 16 -17 16 -24 0 -6 6 -11 14 -11 8 0 17 -8 21 -19 9 -30 82 -73
118 -69 25 2 32 9 39 33 6 22 21 36 54 53 25 12 51 19 57 15 24 -15 148 -1
209 23 55 21 63 22 88 9 26 -13 32 -13 61 3 17 9 45 29 62 44 38 34 51 35 71
7 18 -26 46 -19 46 10 0 13 -12 27 -31 36 -20 11 -29 21 -25 31 3 9 6 18 6 20
0 2 7 4 15 4 9 0 21 -11 27 -25 6 -14 15 -26 20 -26 27 -5 33 -1 38 26 7 41
35 44 54 7 8 -16 22 -32 31 -36 23 -8 69 40 60 62 -4 9 -9 45 -10 80 -2 34 -9
72 -18 85 -8 13 -17 37 -19 53 -3 26 -7 29 -42 32 -22 2 -50 12 -63 22 -28 22
-53 16 -53 -11 0 -26 -12 -24 -70 12 -54 33 -87 34 -122 2 -16 -15 -31 -14
-70 2 -11 4 -23 -1 -35 -14 -23 -27 -34 -26 -63 4 -12 13 -26 23 -30 20 -3 -2
-46 -5 -95 -6 -73 -2 -93 -6 -113 -24 -22 -19 -31 -20 -105 -13 -96 9 -296 2
-382 -13 -33 -6 -81 -8 -107 -5 -44 6 -48 5 -69 -25 -19 -27 -26 -30 -57 -25
-19 3 -53 19 -74 37 -36 28 -42 30 -69 19 -23 -10 -32 -10 -44 0 -12 10 -30 8
-95 -10 -63 -18 -95 -22 -148 -17 -70 6 -159 -8 -202 -32 -31 -18 -97 -18
-173 -1 -53 13 -60 12 -95 -8 -34 -19 -50 -21 -142 -17 -83 4 -107 2 -120 -10
-22 -20 -233 -35 -306 -22 -41 7 -58 5 -82 -7 -34 -17 -108 -21 -131 -7 -10 6
-25 5 -42 -5 -15 -7 -63 -18 -106 -23 -44 -4 -89 -14 -101 -20 -16 -8 -38 -9
-75 -3 -56 10 -200 7 -219 -4 -7 -4 -56 -6 -109 -5 -73 2 -105 -2 -128 -13
-16 -9 -52 -16 -78 -16 -28 0 -58 -7 -71 -16 -25 -17 -41 -15 -109 10 -47 17
-91 13 -138 -14 -22 -12 -49 -16 -99 -14 -88 4 -92 6 -100 48 -4 20 -16 45
-27 55 -15 14 -20 29 -17 57 3 34 6 39 26 37 48 -6 15 54 -36 62 -67 12 -70
14 -39 40 33 29 33 35 2 69 -20 22 -23 31 -15 47 9 16 5 25 -18 51 -27 28 -42
76 -44 138 -1 44 22 123 41 144 l23 24 -21 7 c-17 5 -21 15 -21 45 0 21 5 42
10 45 6 3 10 13 10 21 0 17 -37 19 -43 2 -2 -7 -8 -9 -13 -5 -4 4 0 32 10 61
13 38 17 71 14 113 -4 41 -1 65 10 80 9 15 12 34 8 57 -7 38 -19 50 -58 60
-22 5 -28 12 -28 34 0 15 -7 36 -15 46 -17 23 -20 56 -4 56 5 0 17 16 25 35
12 29 20 35 44 35 46 0 58 32 29 84 -12 22 -29 46 -37 52 -10 7 -13 19 -8 38
5 19 0 42 -12 69 -18 38 -19 52 -10 147 6 70 15 111 25 123 10 10 12 17 5 17
-7 0 -12 6 -12 13 0 7 -12 30 -26 51 -26 38 -26 38 -6 59 30 34 34 96 7 129
-12 14 -25 44 -29 66 -3 22 -13 42 -21 46 -12 4 -14 10 -5 25 13 25 47 36 65
21 8 -7 23 -9 32 -5 16 6 15 8 -7 20 -21 11 -25 21 -25 60 0 42 2 45 22 40 19
-4 23 0 29 31 9 51 -6 96 -39 112 -21 10 -27 20 -27 47 0 29 -5 36 -37 52 -45
21 -52 45 -24 70 28 24 26 65 -4 101 -30 36 -30 36 -3 73 19 25 20 33 10 49
-10 17 -9 23 8 40 18 18 18 50 0 50 -8 0 -40 60 -59 113 -6 15 -17 27 -25 27
-19 0 -28 14 -20 34 6 15 8 15 19 -1 11 -15 15 -15 29 -4 9 7 16 20 16 28 0
19 -27 28 -44 14 -18 -15 -27 -2 -15 20 5 11 18 19 29 19 10 0 28 12 40 28 18
22 21 35 16 67 -4 22 -8 50 -10 62 -2 13 -9 30 -16 39 -12 13 -11 17 1 25 8 5
19 9 25 9 14 0 26 28 18 41 -3 5 -11 9 -18 9 -8 0 -19 7 -26 15 -7 8 -22 15
-34 15 -30 0 -66 27 -66 50 0 20 36 46 58 42 24 -5 12 16 -13 22 -25 6 -37 39
-12 34 21 -4 67 12 67 24 0 20 -35 87 -45 88 -5 0 -21 9 -35 20 -14 11 -37 20
-52 20 -34 0 -37 26 -11 71 20 33 40 37 59 12 12 -16 13 -15 14 10 0 30 12 33
56 17 24 -10 30 -8 49 16 18 23 26 26 51 20 16 -4 44 -7 62 -7 19 1 43 -6 55
-14 19 -13 23 -13 44 7 29 27 88 36 188 27 88 -7 106 -2 145 42 24 28 30 29
159 39 135 11 157 16 181 44 16 20 46 21 57 1 5 -8 30 -21 57 -29 l49 -15 29
31 c28 30 30 31 67 18 55 -18 85 -1 76 42 -7 30 -6 30 21 24 16 -4 43 -20 59
-36 40 -39 91 -46 187 -26 43 9 93 16 112 16 28 0 37 5 48 28 20 41 65 42 103
2 29 -30 58 -39 70 -20 4 6 22 9 42 8 23 -1 39 3 47 14 8 10 21 14 45 10 31
-4 32 -3 22 16 -17 31 -14 40 19 57 34 18 32 35 -4 35 -40 0 -66 30 -68 77 -2
54 15 73 63 73 48 0 58 15 19 29 -17 5 -30 16 -30 24 0 7 -11 24 -25 37 -23
21 -60 32 -165 46 -19 2 -47 7 -61 10 -14 3 -47 0 -73 -7 -39 -10 -49 -9 -64
3 -33 29 -127 37 -210 17 -53 -13 -221 -4 -378 21 -56 8 -68 7 -123 -15 -79
-33 -116 -32 -137 0 -19 30 -33 31 -65 6 -13 -10 -35 -21 -49 -25 -14 -4 -42
-12 -62 -18 -32 -9 -43 -8 -73 8 -33 17 -36 17 -82 1 -40 -14 -53 -15 -81 -5
-28 11 -41 10 -95 -10 -34 -12 -81 -22 -105 -22 -23 0 -60 -9 -82 -20 -22 -11
-44 -20 -50 -20 -6 0 -24 -9 -39 -21 -22 -16 -33 -19 -48 -11 -10 6 -52 11
-91 11 -40 0 -76 2 -80 5 -13 8 -296 -30 -321 -43 -13 -7 -37 -10 -55 -7 -73
14 -231 7 -296 -12 -56 -17 -329 -42 -430 -40 -14 0 -38 -4 -55 -10 -62 -22
-128 -32 -203 -32 -90 0 -139 -12 -158 -38 -7 -10 -37 -24 -67 -32 -51 -12
-58 -11 -89 8 -20 12 -43 18 -59 15 -22 -4 -28 1 -43 36 -14 30 -26 42 -48 46
-24 6 -27 9 -17 21 7 8 18 13 25 10 7 -3 18 2 24 10 17 20 -2 40 -45 48 -19 4
-35 12 -35 18 0 5 -11 19 -24 29 -34 27 -42 77 -15 105 18 19 20 28 12 61 -5
22 -5 59 0 89 7 44 5 58 -12 91 -18 36 -18 42 -5 62 8 11 12 26 8 32 -4 7 -6
36 -5 65 2 55 -10 74 -34 54 -24 -20 -43 -4 -77 66 l-33 66 30 24 c17 13 29
32 27 42 -6 44 -27 99 -45 119 -28 32 -19 66 22 79 l35 11 -22 19 c-29 25 -28
36 7 62 21 15 28 27 24 42 -3 12 0 32 7 45 7 13 10 29 8 37 -3 7 0 24 7 38 18
36 27 108 15 115 -5 3 -10 19 -10 35 0 17 -11 43 -28 62 -55 66 -92 117 -92
127 0 6 13 25 28 43 15 18 36 52 47 76 18 42 18 43 -2 65 -11 12 -31 41 -43
65 -13 23 -28 43 -34 44 -6 0 -15 2 -21 2 -21 3 -35 18 -35 36 0 11 -11 26
-23 35 -21 14 -24 22 -22 78 1 34 -2 87 -7 116 -9 48 -7 57 8 68 10 7 24 11
31 9 12 -5 17 5 14 30 0 5 14 17 31 25 26 12 51 13 123 6 97 -9 151 -10 230
-4 28 2 70 -3 94 -11 25 -8 60 -12 79 -8 19 3 44 1 54 -5 14 -7 33 -7 66 1 34
9 58 9 84 2 24 -7 52 -7 79 -1 24 6 95 12 158 14 180 7 242 13 256 25 8 6 42
10 77 9 35 -1 110 3 168 9 58 6 108 11 112 12 3 0 19 11 35 23 15 13 40 27 55
31 23 5 28 13 34 54 4 33 15 57 37 80 26 27 38 32 77 32 34 0 52 -5 65 -20 24
-27 69 -25 130 5 30 14 59 22 73 18 12 -3 28 -1 35 4 6 5 37 15 68 22 52 11
59 10 95 -10 22 -12 46 -28 54 -34 13 -10 172 -55 194 -55 4 0 6 6 3 13 -11
28 10 41 62 38 41 -2 52 2 61 19 13 25 42 20 117 -22 49 -27 53 -28 86 -15 19
8 44 29 56 46 12 17 30 31 39 31 9 0 26 12 38 28 21 25 27 27 101 27 l78 0 14
33 15 32 68 -3 c49 -3 85 2 125 15 46 16 61 17 84 7 20 -8 33 -8 42 -1 6 5 38
13 69 17 65 8 69 12 87 74 15 53 12 56 -94 84 -64 17 -74 17 -120 3 -36 -11
-93 -15 -205 -14 -85 1 -165 -2 -176 -6 -26 -8 -54 16 -54 44 0 28 52 52 95
44 23 -4 41 -1 57 10 28 20 57 20 82 1 25 -19 36 -19 36 0 0 28 59 55 106 48
l43 -6 11 44 c15 56 6 71 -55 86 -26 7 -58 21 -70 33 -12 11 -30 20 -41 20
-10 1 -30 7 -44 15 -35 20 -44 19 -80 -12 -31 -25 -34 -26 -78 -14 -42 11 -55
20 -64 43 -4 10 -51 18 -68 11z m-372 -225 c-5 -32 -28 -35 -28 -4 0 17 5 26
16 26 10 0 14 -7 12 -22z m312 -83 c0 -2 -7 -5 -15 -9 -9 -3 -15 0 -15 9 0 9
6 12 15 9 8 -4 15 -7 15 -9z m-2670 -136 c11 -26 11 -32 -1 -40 -8 -5 -17 -9
-21 -9 -9 0 -38 30 -38 40 0 11 29 40 40 40 4 0 13 -14 20 -31z m66 -60 c13
-22 -12 -30 -31 -9 -18 19 -18 20 3 20 11 0 24 -5 28 -11z m-696 -8 c0 -19
-22 -23 -38 -7 -15 15 -14 16 11 16 15 0 27 -4 27 -9z m605 -45 c19 -8 35 -20
35 -27 0 -6 11 -20 25 -31 19 -15 25 -29 25 -57 0 -46 -7 -54 -32 -37 -14 10
-31 11 -69 4 -63 -11 -79 -6 -79 26 0 14 -6 29 -14 33 -12 6 -7 17 21 56 19
26 39 47 44 47 5 0 25 -7 44 -14z m585 -26 c20 -20 18 -50 -5 -50 -19 0 -48
38 -42 55 8 20 23 19 47 -5z m-1000 -280 c0 -5 -7 -7 -15 -4 -8 4 -15 8 -15
10 0 2 7 4 15 4 8 0 15 -4 15 -10z m-188 -185 c0 -5 -5 -11 -11 -13 -6 -2 -11
4 -11 13 0 9 5 15 11 13 6 -2 11 -8 11 -13z m-32 -154 c0 -5 -7 -11 -15 -15
-9 -3 -15 0 -15 9 0 8 7 15 15 15 8 0 15 -4 15 -9z m270 -11 c0 -5 -7 -10 -15
-10 -8 0 -15 5 -15 10 0 6 7 10 15 10 8 0 15 -4 15 -10z m-255 -75 c0 -10 -8
-23 -17 -29 -26 -16 -42 5 -33 44 6 29 8 30 28 17 12 -8 22 -22 22 -32z m20
-114 c8 -14 -13 -24 -33 -16 -14 5 -14 7 -2 15 19 12 27 12 35 1z m-33 -83
c44 1 35 -37 -14 -54 -42 -14 -48 -11 -48 26 0 30 8 42 23 33 5 -3 23 -6 39
-5z m88 -328 c0 -5 -7 -7 -15 -4 -8 4 -15 8 -15 10 0 2 7 4 15 4 8 0 15 -4 15
-10z m57 -106 c-3 -3 -12 -4 -19 -1 -8 3 -5 6 6 6 11 1 17 -2 13 -5z m-47
-119 c0 -8 -7 -15 -15 -15 -8 0 -15 7 -15 15 0 8 7 15 15 15 8 0 15 -7 15 -15z
m-23 -220 c7 -20 0 -27 -20 -19 -25 9 -30 34 -6 34 11 0 22 -7 26 -15z m53
-51 c0 -24 -39 -84 -55 -84 -16 0 -28 27 -19 43 27 47 74 73 74 41z m14 -430
c11 -4 16 -19 16 -49 0 -24 5 -47 10 -50 6 -3 10 -13 10 -21 0 -17 -52 -19
-82 -3 -20 11 -20 11 2 34 l22 24 -22 35 -22 36 25 0 c14 0 32 -3 41 -6z
m-135 -173 c7 -5 10 -14 7 -20 -10 -16 -56 -14 -56 2 0 26 23 35 49 18z m186
-101 c16 -18 16 -20 1 -26 -17 -7 -66 20 -66 36 0 18 46 11 65 -10z m-98 -135
c8 -21 -1 -28 -27 -20 -17 5 -19 10 -9 21 15 18 28 18 36 -1z m42 -252 c12
-14 19 -28 17 -30 -6 -7 -86 17 -86 25 0 12 23 32 36 32 7 0 22 -12 33 -27z
m647 -224 c26 -28 30 -114 6 -125 -9 -4 -52 -9 -95 -10 -76 -4 -78 -3 -75 18
2 16 12 24 34 29 45 9 54 17 76 65 22 50 27 52 54 23z m1532 -2 c3 -12 -3 -17
-21 -17 -31 0 -40 10 -25 27 15 18 42 12 46 -10z m-438 -27 c0 -23 -13 -32
-34 -24 -21 8 -20 24 1 40 21 15 33 9 33 -16z m-975 -9 c7 -12 -12 -24 -25
-16 -11 7 -4 25 10 25 5 0 11 -4 15 -9z m221 -25 l35 -23 -91 -7 c-51 -4 -94
-5 -98 -2 -9 9 -12 39 -7 55 8 22 118 7 161 -23z m-581 -76 c4 -12 1 -27 -5
-35 -10 -13 -16 -12 -41 1 -16 8 -29 17 -29 19 0 5 52 34 62 35 4 0 10 -9 13
-20z m2173 -1487 c-2 -26 -8 -38 -18 -38 -10 0 -16 12 -18 38 -3 32 0 37 18
37 18 0 21 -5 18 -37z m67 -213 c0 -18 -33 -26 -47 -12 -6 6 -7 15 -3 22 10
16 50 8 50 -10z m162 -2258 c6 -4 14 -19 18 -34 4 -15 15 -30 25 -33 12 -4 16
-12 13 -25 -3 -11 0 -26 6 -34 9 -11 6 -18 -15 -35 -33 -26 -66 -27 -89 -1
-20 22 -10 44 28 56 19 6 18 8 -13 23 -42 20 -46 31 -20 64 23 29 28 31 47 19z
m2683 -296 c0 -2 -7 -9 -15 -16 -12 -10 -15 -10 -15 4 0 9 7 16 15 16 8 0 15
-2 15 -4z m-662 -104 c4 -24 -7 -29 -26 -10 -18 18 -15 40 6 36 9 -2 18 -13
20 -26z m-1918 -142 c0 -34 -6 -36 -38 -14 -39 27 -21 74 21 52 10 -5 17 -20
17 -38z m-1890 -30 c8 -16 8 -20 -3 -20 -8 0 -29 -3 -46 -6 -26 -6 -31 -4 -31
13 0 26 8 33 41 33 18 0 32 -7 39 -20z m712 -19 l41 -39 -34 -21 c-41 -25 -41
-25 -70 -2 -22 18 -22 21 -9 60 7 22 17 41 22 41 4 0 27 -18 50 -39z m-847
-51 c3 -5 1 -10 -4 -10 -6 0 -11 5 -11 10 0 6 2 10 4 10 3 0 8 -4 11 -10z
m-225 -31 c0 -5 -7 -9 -15 -9 -9 0 -15 9 -15 21 0 18 2 19 15 9 8 -7 15 -16
15 -21z m737 -5 c3 -8 0 -21 -6 -27 -10 -9 -16 -8 -26 7 -8 10 -12 23 -9 27 9
15 34 10 41 -7z"/>
<path d="M23766 10573 c-9 -23 24 -55 43 -43 12 7 13 13 3 34 -13 30 -37 34
-46 9z"/>
<path d="M23532 10538 c6 -18 28 -21 28 -4 0 9 -7 16 -16 16 -9 0 -14 -5 -12
-12z"/>
<path d="M23577 10483 c-19 -5 -47 -52 -47 -80 0 -10 7 -26 14 -36 13 -17 14
-16 19 3 8 31 65 28 77 -5 11 -28 18 -30 55 -13 30 13 31 22 7 40 -11 7 -24
23 -31 36 -6 12 -17 22 -23 22 -7 0 -21 8 -32 18 -12 10 -29 17 -39 15z"/>
<path d="M14014 10415 c-4 -8 -3 -30 0 -48 4 -17 10 -49 13 -69 4 -33 9 -38
32 -38 36 0 91 -35 91 -59 0 -12 -11 -23 -32 -30 l-33 -12 33 -30 c17 -16 32
-36 32 -42 0 -19 -30 -57 -44 -57 -29 0 -38 -26 -22 -65 9 -21 13 -41 10 -46
-7 -12 -44 -11 -44 1 0 6 -6 10 -14 10 -20 0 -29 -82 -11 -96 20 -15 19 -34
-2 -50 -16 -11 -16 -16 -4 -35 10 -17 13 -57 13 -146 -1 -89 2 -125 11 -130 7
-5 19 -35 27 -68 7 -33 22 -80 33 -104 19 -39 19 -45 5 -68 -15 -24 -13 -28
24 -82 26 -38 41 -73 47 -109 4 -29 13 -58 20 -65 13 -13 15 -47 2 -47 -5 0
-16 6 -23 14 -8 7 -24 17 -36 20 -28 9 -29 -7 -2 -41 12 -15 20 -41 20 -63 0
-22 8 -48 20 -63 17 -22 20 -38 17 -121 -1 -53 -7 -100 -12 -105 -6 -5 -35
-16 -65 -26 -71 -23 -76 -28 -49 -54 20 -18 21 -24 10 -45 -8 -13 -11 -28 -8
-33 4 -6 1 -40 -4 -77 -10 -62 -9 -70 9 -89 11 -12 22 -29 26 -37 3 -8 4 -2 2
15 -2 16 0 38 5 47 13 25 49 23 49 -1 0 -11 10 -27 21 -35 38 -26 10 -54 -48
-47 -6 1 -21 -14 -33 -33 -17 -28 -19 -39 -10 -56 6 -11 15 -20 19 -20 15 0
21 -29 12 -53 -13 -33 3 -55 35 -49 21 4 25 1 22 -14 -2 -11 -15 -21 -33 -24
-17 -4 -39 -11 -50 -17 -11 -6 -39 -16 -62 -22 -45 -12 -66 -7 -145 35 l-47
25 -28 -20 c-16 -10 -50 -22 -77 -26 -43 -6 -51 -4 -76 20 -26 25 -34 27 -122
27 -137 0 -178 -13 -178 -58 0 -32 -10 -30 -42 6 -31 35 -50 38 -79 9 l-21
-21 21 -22 c26 -28 27 -52 2 -66 -26 -13 -33 -2 -34 56 0 47 -7 55 -59 68 -25
6 -29 2 -42 -29 -15 -36 -33 -44 -54 -23 -11 11 -42 6 -127 -24 -16 -5 -41
-12 -55 -15 -14 -3 -31 -10 -38 -16 -20 -16 -89 -21 -205 -15 -28 2 -41 -3
-52 -19 -14 -20 -17 -21 -46 -6 -43 22 -154 12 -183 -16 -17 -16 -30 -19 -56
-15 -35 6 -36 5 -61 -53 -14 -32 -42 -79 -62 -104 -19 -26 -40 -56 -47 -69
-10 -18 -17 -21 -44 -16 -24 5 -37 2 -47 -10 -30 -37 99 -105 193 -101 43 2
49 5 58 31 l10 29 79 -7 c67 -6 79 -5 85 9 5 14 8 14 28 1 17 -11 57 -15 160
-15 122 0 139 2 162 20 36 28 204 42 244 20 15 -9 79 4 131 27 26 11 39 12 58
3 13 -6 37 -11 53 -11 16 0 32 -5 35 -10 4 -6 11 -8 16 -4 6 3 66 7 135 9 104
3 129 6 145 21 17 15 24 16 39 6 11 -7 26 -12 34 -12 8 0 37 -12 65 -26 47
-25 53 -26 102 -14 28 7 78 10 110 7 43 -4 61 -1 70 9 19 23 43 16 80 -22 24
-25 40 -34 57 -31 21 4 22 1 22 -54 0 -55 15 -89 41 -89 16 0 10 -26 -10 -44
-11 -10 -19 -30 -19 -47 1 -15 -5 -36 -13 -45 -11 -14 -11 -18 3 -28 42 -31
41 -128 -2 -149 -14 -7 -25 -20 -25 -28 0 -9 -14 -28 -30 -44 -28 -26 -25 -27
20 -9 17 7 30 -34 21 -64 -4 -11 0 -24 9 -32 9 -7 15 -29 15 -51 0 -21 5 -41
10 -44 16 -10 12 -23 -9 -30 -28 -9 -36 -41 -17 -70 20 -30 13 -48 -22 -62
-24 -9 -25 -11 -8 -18 11 -5 26 -3 37 3 10 7 23 12 29 12 13 0 13 -37 0 -45
-7 -4 -4 -17 7 -36 18 -30 18 -31 -11 -56 -31 -26 -27 -36 20 -49 14 -4 24
-16 27 -37 4 -18 9 -43 13 -56 6 -21 5 -22 -14 -12 -29 16 -57 14 -73 -5 -12
-14 -9 -20 16 -40 17 -14 36 -29 43 -35 7 -6 11 -17 8 -25 -3 -8 2 -33 10 -55
16 -38 16 -41 -5 -63 -28 -30 -27 -50 5 -75 22 -17 25 -26 20 -53 -3 -21 0
-40 9 -52 20 -27 19 -48 -5 -69 -11 -9 -20 -26 -20 -37 0 -10 9 -24 20 -30 25
-13 26 -35 1 -52 -10 -7 -25 -27 -34 -45 -9 -17 -26 -35 -37 -38 -29 -9 -22
-41 8 -37 17 3 22 -2 22 -20 0 -13 9 -43 20 -67 24 -52 25 -65 4 -85 -8 -9
-12 -21 -9 -27 4 -5 1 -23 -5 -40 -15 -34 0 -60 29 -52 16 4 19 -5 25 -86 4
-50 5 -95 2 -99 -3 -5 -8 -36 -10 -69 -4 -46 0 -67 13 -90 23 -37 18 -124 -10
-149 -17 -15 -17 -17 1 -52 20 -39 26 -154 17 -317 -3 -66 -1 -84 14 -107 11
-14 19 -31 19 -38 0 -7 9 -25 20 -40 16 -23 20 -42 18 -93 -3 -62 -2 -66 35
-106 20 -22 37 -50 37 -61 0 -12 18 -38 41 -60 37 -35 40 -42 34 -72 -8 -34
-51 -98 -66 -98 -5 0 -9 -10 -9 -22 0 -25 46 -88 64 -88 8 0 21 -11 30 -25 9
-14 21 -23 26 -20 15 9 12 41 -5 55 -20 17 -19 40 3 56 14 11 21 9 40 -9 24
-23 45 -18 66 15 14 23 -16 65 -54 73 -39 9 -70 66 -49 91 7 9 24 20 37 25 23
9 23 11 9 32 -10 15 -12 29 -6 38 14 22 11 35 -14 66 -38 44 -42 80 -15 119
13 19 30 34 39 34 9 0 22 7 29 15 11 13 9 20 -9 39 l-23 24 36 17 c55 26 84
85 41 85 -14 0 -35 50 -35 86 0 13 9 28 20 34 22 12 28 50 7 50 -7 0 -20 12
-29 28 -19 33 -10 122 15 150 17 19 15 42 -5 69 -11 13 -84 -15 -99 -38 -8
-11 -12 -10 -24 5 -15 20 -11 41 6 30 14 -9 58 23 71 52 6 13 22 27 36 31 23
6 24 8 19 69 -3 39 -13 76 -26 97 -17 29 -19 38 -9 64 7 19 8 37 2 49 -5 10
-9 37 -9 59 0 32 -5 42 -22 50 -33 14 -36 34 -8 41 25 6 33 28 15 39 -14 9
-12 35 3 35 14 1 59 89 51 101 -9 15 -51 10 -75 -10 -21 -17 -22 -21 -11 -46
15 -32 5 -45 -37 -45 -20 0 -23 4 -19 25 4 20 1 26 -18 31 -34 9 -30 37 11 78
19 20 35 42 35 49 0 19 -36 50 -49 42 -6 -3 -11 -2 -11 3 0 14 39 135 50 154
6 10 10 31 10 48 0 23 5 30 19 30 10 0 22 -7 25 -16 4 -9 9 -14 12 -11 3 3 2
11 -2 19 -4 7 -7 30 -5 51 2 29 -3 45 -20 63 -22 23 -22 24 -4 44 20 22 25 60
26 221 1 88 -3 115 -20 154 -12 26 -21 58 -21 70 0 16 -11 30 -36 44 -43 26
-42 51 4 63 25 7 32 14 32 33 0 19 -10 30 -40 45 -38 19 -58 49 -24 36 20 -8
54 10 54 29 0 7 -14 25 -31 38 -31 24 -31 25 -18 61 11 32 11 38 -1 46 -8 5
-17 7 -21 4 -11 -6 -59 17 -60 30 -3 26 -5 33 -18 65 -13 31 -13 35 4 47 10 8
25 14 32 14 8 0 13 12 13 30 0 33 11 38 30 15 13 -16 60 -21 60 -7 0 5 -9 17
-20 27 -31 28 -23 69 13 73 36 4 35 26 -4 62 -30 27 -31 31 -31 110 l0 82 -34
14 c-29 12 -34 19 -34 46 0 18 9 41 20 53 16 17 17 24 7 45 -11 22 -20 25 -74
28 l-61 3 -10 39 c-11 44 -8 50 23 50 14 0 26 10 33 25 7 14 19 28 27 31 9 4
15 19 15 35 0 19 9 37 25 51 13 11 30 37 36 56 11 33 10 37 -12 53 -78 58 -79
60 -79 99 0 21 -6 43 -15 50 -8 7 -15 21 -15 31 0 12 -10 23 -25 29 -30 12
-31 21 -4 46 17 15 19 26 14 59 -4 33 -1 47 16 69 19 24 19 29 6 49 -7 12 -20
39 -26 60 -9 26 -25 46 -51 62 -51 32 -56 43 -26 55 28 10 34 38 14 58 -9 9
-9 15 -1 23 14 14 33 3 33 -20 0 -18 35 -55 60 -63 8 -3 27 1 43 9 22 11 27
20 27 48 0 30 -3 35 -24 35 -20 0 -24 6 -30 41 -4 22 -4 56 0 74 5 31 4 32
-20 28 -21 -4 -26 -1 -26 15 0 14 8 22 23 24 15 2 22 9 21 23 -2 24 -21 79
-41 118 -10 18 -12 41 -8 71 6 38 4 46 -14 58 -29 18 -27 58 4 83 16 12 28 34
32 57 5 36 4 39 -31 53 -20 9 -39 22 -42 29 -3 7 -23 21 -45 31 -36 16 -54 45
-28 45 5 0 16 15 24 33 25 54 41 70 70 64 34 -6 69 28 59 58 -3 11 -9 37 -11
58 -5 38 -11 43 -68 62 -18 6 -17 8 13 34 28 22 32 31 27 53 -4 15 -13 32 -20
38 -8 6 -12 17 -9 25 3 7 -3 16 -15 20 -24 7 -43 37 -33 51 4 5 16 14 27 20
11 6 22 20 24 30 2 10 9 23 16 29 7 5 16 27 19 47 6 33 3 39 -22 58 -28 21
-29 25 -27 89 2 59 6 73 31 105 16 20 35 36 42 36 7 0 12 15 12 39 0 33 -5 43
-30 61 -23 17 -29 27 -24 45 4 18 0 27 -20 40 -22 15 -29 15 -44 4 -9 -8 -21
-20 -25 -27 -14 -22 -84 -51 -96 -39 -6 6 -27 11 -48 11 -35 2 -38 4 -41 34
-3 27 -7 32 -28 32 -14 0 -27 -7 -30 -15z m284 -1306 c-7 -5 -21 -9 -30 -9
-29 0 -22 37 10 54 26 14 27 13 30 -11 2 -14 -2 -30 -10 -34z m-23 -718 c0 -8
-8 -19 -18 -25 -15 -9 -21 -7 -33 8 -21 30 -17 38 19 34 19 -2 32 -9 32 -17z
m-72 -62 c47 -13 39 -29 -14 -29 -32 0 -39 3 -39 20 0 23 2 23 53 9z m74 -15
c-3 -3 -12 -4 -19 -1 -8 3 -5 6 6 6 11 1 17 -2 13 -5z m58 -354 c3 -5 1 -10
-4 -10 -6 0 -11 5 -11 10 0 6 2 10 4 10 3 0 8 -4 11 -10z m-386 -230 c23 0 31
-6 39 -30 10 -27 8 -31 -24 -50 -40 -26 -63 -20 -99 21 -43 52 -26 101 26 73
15 -7 41 -14 58 -14z m451 15 c0 -8 -7 -15 -15 -15 -16 0 -20 12 -8 23 11 12
23 8 23 -8z m-206 -174 c3 -5 0 -14 -8 -20 -10 -8 -16 -8 -25 3 -9 11 -9 15 1
19 20 8 26 8 32 -2z m378 -1353 c-16 -16 -37 4 -28 28 6 16 8 16 23 1 13 -13
15 -19 5 -29z m-12 -913 c0 -8 -9 -15 -20 -15 -20 0 -26 11 -13 23 12 13 33 7
33 -8z m60 -194 c0 -10 -7 -21 -15 -25 -15 -5 -22 24 -8 37 12 13 23 7 23 -12z
m36 -656 c8 -20 -13 -45 -37 -45 -19 0 -24 16 -13 44 8 20 43 21 50 1z m-52
-720 c-4 -8 -8 -15 -10 -15 -2 0 -4 7 -4 15 0 8 4 15 10 15 5 0 7 -7 4 -15z"/>
<path d="M23699 10309 l-21 -21 22 -23 c26 -28 20 -44 -15 -37 -20 3 -25 10
-25 33 0 17 -6 32 -14 35 -18 7 -66 -24 -66 -42 0 -9 -8 -12 -27 -8 l-28 5 -3
-84 c-2 -52 1 -88 7 -92 14 -8 14 -48 -1 -80 -10 -22 -8 -28 10 -48 29 -31 28
-63 -3 -83 -20 -13 -25 -25 -25 -55 0 -36 2 -39 28 -39 29 0 40 -6 61 -32 11
-15 10 -24 -8 -61 -46 -95 -52 -172 -18 -224 5 -8 -7 -28 -33 -55 -58 -60 -71
-117 -48 -203 9 -35 10 -50 1 -64 -7 -11 -10 -35 -6 -54 3 -22 -1 -45 -11 -66
-16 -31 -16 -35 5 -89 11 -31 25 -88 30 -127 4 -38 13 -87 20 -108 11 -33 10
-40 -8 -60 -22 -23 -30 -112 -12 -133 5 -6 4 -26 -3 -47 -10 -33 -9 -41 9 -65
18 -25 19 -30 6 -49 -17 -26 -10 -43 18 -43 29 0 33 -25 10 -57 -27 -38 -46
-189 -27 -218 21 -33 27 -134 10 -167 -15 -29 -11 -93 7 -104 5 -3 9 -16 9
-30 0 -17 6 -24 19 -24 10 0 25 -7 32 -16 11 -14 10 -21 -4 -46 -9 -16 -17
-40 -17 -53 0 -12 -7 -25 -15 -29 -22 -8 -18 -33 6 -39 18 -5 20 -10 14 -29
-11 -31 -7 -142 6 -201 12 -53 -1 -127 -27 -148 -17 -14 -19 -98 -3 -132 9
-21 8 -28 -11 -47 -16 -16 -20 -29 -16 -48 13 -55 28 -147 27 -157 -1 -5 -3
-45 -4 -87 -2 -44 -8 -83 -15 -90 -18 -18 -14 -53 8 -73 18 -16 18 -19 4 -47
-10 -20 -13 -39 -8 -57 4 -14 6 -43 5 -65 -2 -21 3 -49 10 -63 10 -18 10 -33
2 -65 -8 -28 -8 -48 -1 -63 7 -17 6 -29 -5 -46 -12 -20 -13 -34 -5 -79 12 -68
12 -62 -1 -195 -8 -80 -9 -124 -1 -160 6 -27 15 -71 19 -97 4 -25 13 -53 20
-61 7 -9 11 -21 10 -29 -5 -38 3 -59 26 -70 14 -6 25 -17 25 -25 0 -20 38 -15
73 10 25 17 44 22 82 20 51 -2 153 14 168 27 12 11 -49 127 -73 140 -18 10
-20 17 -14 58 4 33 14 53 32 68 l26 21 -22 35 c-20 32 -20 36 -5 58 9 13 20
41 24 64 6 34 3 48 -17 83 -24 42 -33 103 -14 103 6 0 10 -7 10 -17 0 -9 3
-13 7 -9 5 4 6 35 5 67 -3 46 0 65 13 79 14 15 16 27 10 57 -5 21 -7 42 -6 48
5 19 3 41 -7 100 -12 71 3 147 33 169 17 12 17 17 5 45 -11 27 -10 34 2 49 24
27 30 130 10 164 -14 23 -23 28 -58 28 -28 0 -46 6 -58 19 -17 19 -17 20 13
36 21 11 31 23 31 39 0 13 7 29 15 36 14 12 13 15 -5 35 -24 25 -26 60 -4 69
27 10 13 51 -19 54 -28 3 -53 35 -41 53 3 6 13 8 21 5 9 -4 22 -1 29 5 19 15
18 58 -1 65 -22 9 -18 48 11 104 23 43 25 54 15 82 -6 18 -21 42 -32 55 -13
13 -20 30 -16 42 3 13 -4 28 -19 42 -29 27 -30 36 -4 44 13 4 20 15 20 31 0
28 -7 30 -38 8 -22 -15 -23 -14 -37 20 -18 44 -19 56 -2 56 7 0 21 6 31 13 15
11 16 18 8 34 -9 16 -7 28 8 56 25 47 25 70 -2 124 -19 38 -20 48 -9 78 9 26
9 38 0 53 -16 25 -6 50 26 62 17 6 33 26 45 56 19 43 44 56 46 23 2 -34 5 -39
21 -39 9 0 48 -11 87 -24 63 -21 86 -24 206 -22 74 2 146 -1 159 -6 18 -6 29
-4 43 9 15 14 44 17 161 20 78 2 189 3 247 3 103 -2 105 -1 127 26 20 25 25
27 55 18 18 -5 59 -6 93 -2 47 5 67 3 92 -9 26 -14 36 -15 58 -5 14 7 42 12
61 12 44 0 53 21 25 56 -12 15 -21 33 -21 40 0 7 -16 25 -35 39 -19 15 -37 35
-40 45 -3 10 -24 25 -47 32 -44 15 -73 47 -50 55 6 3 12 11 12 19 0 10 -8 5
-23 -12 -20 -23 -27 -25 -44 -16 -11 6 -30 27 -41 45 -32 56 -70 68 -214 73
-110 3 -133 1 -170 -16 -24 -11 -55 -20 -69 -20 -14 0 -34 -9 -45 -21 -15 -17
-25 -20 -54 -14 -179 36 -231 39 -281 17 -46 -20 -47 -20 -75 -1 -16 11 -38
17 -50 14 -16 -3 -27 2 -38 20 -19 28 -46 32 -80 10 -12 -8 -33 -14 -47 -14
-13 1 -36 -2 -51 -6 -18 -4 -28 -3 -28 4 0 7 -8 8 -24 2 -17 -7 -31 -5 -55 10
-36 22 -39 42 -12 83 27 40 13 66 -34 66 -19 0 -35 4 -35 9 0 12 29 41 41 41
18 0 9 28 -11 33 -11 3 -27 21 -35 39 -12 31 -17 34 -45 30 -16 -2 -33 -8 -36
-13 -9 -14 -24 -10 -24 6 0 9 8 18 18 22 41 14 122 56 133 69 15 18 5 114 -16
154 -22 42 -18 73 10 98 26 23 32 46 15 57 -5 3 -10 16 -10 29 0 13 -9 31 -19
40 -23 21 -17 46 10 46 27 0 42 33 28 64 -7 15 -8 36 -4 53 11 36 7 64 -12 84
-24 27 -8 85 28 99 53 22 33 60 -32 60 -16 0 -29 4 -29 9 0 12 26 38 50 51 32
17 13 43 -25 37 -18 -3 -37 -1 -43 5 -16 16 2 44 32 52 36 9 53 44 31 60 -15
11 -16 16 -5 35 6 13 9 33 6 46 -4 15 1 28 14 40 25 23 25 46 -1 96 -16 33
-18 43 -8 55 10 12 9 21 -6 47 -10 18 -23 35 -29 39 -20 14 -56 8 -77 -13z
m44 -134 c5 -16 16 -38 25 -47 12 -14 12 -20 2 -33 -18 -21 -22 -20 -74 26
-29 25 -46 49 -46 63 0 20 5 22 42 22 37 -1 42 -4 51 -31z m-66 -357 c11 -16
36 -88 31 -93 -1 -2 -18 3 -36 10 -28 12 -32 18 -26 40 4 15 1 32 -6 40 -10
12 -9 15 8 15 11 0 24 -6 29 -12z m113 -326 c0 -13 -12 -22 -22 -16 -10 6 -1
24 13 24 5 0 9 -4 9 -8z m-50 -817 c0 -36 -13 -47 -24 -19 -11 28 -6 54 9 54
10 0 15 -11 15 -35z m-70 -84 c0 -14 -18 -23 -30 -16 -6 4 -8 11 -5 16 8 12
35 12 35 0z m15 -84 c14 -30 14 -36 0 -63 -8 -16 -15 -37 -15 -47 0 -34 -25
-11 -26 24 0 19 -4 46 -8 61 -17 61 23 80 49 25z m265 -71 c0 -24 20 -29 40
-11 20 18 40 13 40 -10 0 -8 7 -18 16 -23 23 -13 10 -29 -28 -35 -18 -3 -58
-11 -88 -17 -48 -10 -55 -10 -67 6 -23 31 -16 63 20 84 38 23 67 26 67 6z m88
-128 c-2 -6 -10 -14 -16 -16 -7 -2 -10 2 -6 12 7 18 28 22 22 4z m-388 -73 c0
-8 -4 -15 -10 -15 -5 0 -10 7 -10 15 0 8 5 15 10 15 6 0 10 -7 10 -15z m-35
-465 c3 -5 -1 -10 -9 -10 -9 0 -16 5 -16 10 0 6 4 10 9 10 6 0 13 -4 16 -10z
m215 -1685 c0 -8 -4 -15 -10 -15 -5 0 -10 7 -10 15 0 8 5 15 10 15 6 0 10 -7
10 -15z"/>
<path d="M21070 9636 c0 -31 10 -38 33 -21 16 12 16 14 2 29 -23 23 -35 20
-35 -8z"/>
<path d="M2057 9432 c-23 -25 -21 -34 6 -30 14 2 23 11 25 26 4 27 -9 28 -31
4z"/>
<path d="M10711 9064 c0 -11 3 -14 6 -6 3 7 2 16 -1 19 -3 4 -6 -2 -5 -13z"/>
<path d="M14120 9050 c-8 -5 -11 -12 -7 -16 4 -4 13 -2 19 4 15 15 7 24 -12
12z"/>
<path d="M10722 8969 c8 -13 23 -25 32 -27 28 -6 17 17 -16 34 l-32 17 16 -24z"/>
<path d="M10605 8917 c-8 -20 -27 -39 -49 -50 -43 -20 -45 -30 -8 -62 30 -27
52 -32 52 -11 0 8 14 19 30 25 22 7 30 16 30 34 0 14 7 30 15 37 21 17 19 37
-4 50 -33 17 -52 11 -66 -23z"/>
<path d="M10710 8750 c0 -11 6 -20 14 -20 24 0 28 18 6 30 -17 9 -20 8 -20
-10z"/>
<path d="M10470 8730 l-21 -29 22 -30 c19 -26 20 -33 10 -64 -7 -20 -21 -47
-32 -61 -11 -14 -19 -33 -17 -43 2 -12 -4 -19 -20 -21 -12 -2 -30 -14 -38 -27
-14 -22 -14 -27 2 -55 26 -43 11 -65 -47 -65 l-44 0 0 -45 c0 -45 0 -45 34
-42 30 2 33 0 28 -18 -3 -12 -1 -34 5 -50 8 -23 6 -35 -8 -60 -18 -30 -47 -40
-59 -20 -3 6 -15 10 -25 10 -14 0 -24 -16 -40 -67 -13 -38 -31 -82 -41 -99
-12 -20 -15 -34 -9 -40 7 -7 -2 -24 -25 -51 -19 -23 -35 -52 -35 -65 0 -13
-11 -39 -24 -59 -24 -35 -24 -35 -5 -60 26 -34 24 -46 -10 -54 -18 -4 -31 -14
-35 -27 -7 -27 4 -107 15 -114 20 -12 4 -73 -40 -154 -40 -75 -53 -114 -53
-162 0 -42 -7 -66 -34 -115 -19 -34 -34 -69 -34 -78 0 -9 -7 -29 -15 -45 -9
-17 -17 -71 -20 -141 -3 -62 -11 -121 -16 -131 -7 -13 -5 -26 7 -48 17 -28 17
-30 0 -49 -16 -18 -16 -21 -2 -50 15 -29 15 -31 -4 -41 -19 -10 -20 -8 -20 48
0 47 -4 63 -21 78 -17 16 -22 16 -29 4 -6 -8 -10 -21 -10 -29 0 -7 -11 -24
-25 -37 -35 -32 -32 -51 9 -58 19 -4 45 -15 57 -25 19 -15 21 -23 13 -41 l-9
-21 -27 20 c-14 12 -33 21 -42 21 -23 0 -20 -43 4 -65 41 -37 10 -133 -50
-154 -20 -7 -30 -17 -30 -31 0 -13 -9 -24 -25 -30 -24 -9 -24 -10 -10 -44 21
-50 7 -84 -37 -88 l-33 -3 3 -53 c3 -48 1 -55 -27 -79 -23 -20 -31 -36 -31
-60 0 -17 -7 -38 -15 -47 -18 -17 -19 -51 -4 -111 12 -49 37 -66 56 -38 8 9
31 23 53 29 32 10 42 9 51 -2 33 -40 66 6 48 66 -10 33 -9 43 4 63 14 21 14
35 6 91 -8 51 -8 70 1 82 16 19 40 1 40 -31 0 -29 42 -57 78 -53 19 2 31 12
41 36 14 32 34 41 46 22 9 -14 38 -12 60 4 18 13 18 15 2 39 -28 43 -23 61 16
54 24 -4 39 1 61 18 l28 22 -21 20 c-25 23 -19 53 9 53 54 0 65 33 26 75 -28
30 -25 51 7 61 12 3 33 17 47 30 17 15 36 23 55 21 24 -2 31 2 33 19 2 11 -4
27 -13 34 -23 19 -18 47 10 54 30 8 32 29 5 58 -31 33 -28 102 5 124 30 19 33
62 9 99 -11 18 -14 35 -9 57 4 18 8 53 9 78 4 76 5 80 32 105 24 22 25 25 9
48 -17 26 -15 72 4 120 6 16 11 39 11 51 0 13 7 29 15 36 8 7 15 21 15 31 0
10 9 23 20 29 11 6 20 19 20 29 0 28 9 30 54 15 46 -16 102 -67 108 -99 5 -32
34 -30 48 5 17 41 26 44 50 20 20 -20 23 -20 45 -6 23 15 24 14 30 -15 9 -38
0 -47 -23 -26 -26 23 -34 22 -70 -16 -38 -39 -39 -49 -10 -62 13 -6 29 -23 36
-38 8 -15 28 -35 46 -44 30 -14 36 -14 65 1 35 19 51 14 51 -15 0 -12 -7 -19
-19 -19 -10 0 -24 -6 -31 -14 -9 -12 -7 -17 9 -28 14 -8 21 -23 21 -44 0 -46
24 -62 60 -41 50 30 70 19 70 -42 0 -15 16 -57 36 -94 30 -58 40 -68 74 -78
22 -7 49 -23 61 -35 24 -26 49 -30 66 -13 17 17 31 3 39 -37 4 -23 17 -43 38
-59 18 -14 38 -36 46 -49 7 -14 25 -29 41 -35 25 -8 28 -7 31 12 2 12 8 22 14
22 6 0 39 -33 75 -72 35 -40 69 -73 76 -73 7 0 32 -18 55 -39 123 -114 157
-141 174 -141 27 0 92 -24 149 -54 32 -17 64 -26 94 -26 26 0 53 -6 59 -12 10
-10 17 -10 32 -1 15 10 29 8 77 -12 32 -14 66 -30 75 -35 27 -15 51 -12 44 5
-3 8 -9 22 -13 32 -5 14 -2 15 26 10 26 -5 39 -1 74 26 23 17 53 39 65 47 21
14 22 19 13 63 -5 27 -19 60 -32 74 -26 27 -135 83 -163 83 -33 0 -76 31 -90
64 -9 21 -30 42 -59 59 -25 15 -55 41 -67 57 -12 16 -32 33 -46 36 -13 3 -24
12 -24 19 0 6 -10 32 -23 56 -22 41 -27 44 -73 50 -61 7 -103 24 -110 44 -4 8
-14 15 -23 15 -9 0 -57 39 -107 88 -50 48 -105 94 -122 103 -23 13 -31 26 -37
57 -8 47 -24 65 -57 60 -19 -2 -23 1 -21 19 2 16 -6 27 -27 38 -17 9 -30 20
-30 25 0 6 -15 10 -34 10 -27 0 -40 7 -58 31 -40 54 -94 105 -134 125 -40 22
-92 100 -93 142 -1 19 -6 22 -46 22 -33 0 -47 5 -55 19 -15 29 -73 61 -111 61
-24 0 -42 9 -63 30 -30 30 -60 39 -71 20 -4 -6 -17 -3 -35 10 -15 11 -35 20
-44 20 -26 0 -56 58 -45 87 12 32 12 33 -6 33 -18 0 -20 31 -4 47 13 13 4 33
-16 33 -22 0 -15 130 8 141 9 5 25 13 35 18 9 4 18 19 20 32 1 13 10 41 19 61
13 31 14 42 4 67 -11 24 -10 33 4 54 15 24 15 27 0 51 -23 34 -13 54 27 58 30
3 33 6 38 43 5 38 7 40 43 43 31 3 37 7 37 27 0 16 -7 25 -26 29 -16 4 -30 19
-39 39 -7 18 -23 38 -34 45 -14 8 -21 23 -21 43 0 21 -10 40 -30 61 -16 16
-30 36 -30 44 0 8 -11 24 -25 36 -14 12 -25 30 -25 40 0 27 -16 22 -40 -12z
m54 -665 c8 -30 1 -45 -19 -45 -8 0 -16 4 -20 10 -9 15 6 60 20 60 7 0 16 -11
19 -25z m376 -665 c0 -5 -2 -10 -4 -10 -3 0 -8 5 -11 10 -3 6 -1 10 4 10 6 0
11 -4 11 -10z m-50 -330 c0 -5 -2 -10 -4 -10 -3 0 -8 5 -11 10 -3 6 -1 10 4
10 6 0 11 -4 11 -10z m193 -46 c20 -5 27 -12 27 -30 0 -30 -33 -49 -59 -34
-28 14 -61 13 -61 -3 0 -8 11 -19 25 -25 32 -15 33 -42 1 -42 -27 0 -41 14
-50 53 -14 57 21 103 69 91 11 -2 32 -7 48 -10z m97 -159 c0 -16 -25 -26 -45
-18 -14 5 -14 7 1 24 17 19 44 15 44 -6z m295 -219 c16 -29 17 -37 6 -50 -20
-24 -50 -20 -61 9 -5 14 -22 30 -37 36 -33 12 -43 26 -43 61 0 17 6 28 18 30
25 5 96 -46 117 -86z m-1253 -151 c15 -32 8 -38 -37 -29 l-36 6 22 24 c28 30
37 30 51 -1z m-485 -457 c-3 -7 -5 -2 -5 12 0 14 2 19 5 13 2 -7 2 -19 0 -25z"/>
<path d="M19301 8706 c-8 -9 -10 -28 -6 -49 6 -30 2 -39 -25 -67 -24 -24 -29
-37 -23 -53 15 -46 9 -120 -13 -147 -33 -39 -38 -66 -16 -87 10 -10 35 -44 55
-75 53 -81 50 -107 -9 -82 -45 19 -53 2 -25 -52 25 -46 26 -76 5 -109 -11 -16
-13 -29 -6 -42 19 -36 22 -99 7 -119 -8 -10 -15 -33 -15 -51 0 -18 -5 -43 -11
-57 -10 -21 -7 -29 16 -61 31 -40 50 -126 35 -156 -6 -9 -23 -20 -40 -24 -23
-5 -35 -17 -50 -48 -17 -39 -18 -43 -3 -54 9 -7 23 -13 31 -13 11 0 12 -7 6
-27 -4 -16 -8 -48 -9 -73 0 -25 -6 -58 -13 -74 -7 -16 -13 -49 -14 -73 -2 -37
2 -49 21 -64 54 -44 -17 -68 -185 -63 -73 3 -122 0 -130 -7 -9 -7 -30 -6 -73
2 -55 12 -67 11 -128 -8 -76 -24 -188 -25 -235 -3 -15 7 -35 9 -45 5 -10 -4
-36 -7 -58 -6 -29 2 -49 -4 -69 -20 -23 -18 -31 -20 -52 -10 -34 15 -59 14
-74 -4 -17 -21 -46 -19 -70 5 -27 27 -93 27 -121 -1 -16 -16 -27 -19 -51 -14
-31 7 -116 -14 -169 -41 -16 -8 -39 -11 -57 -8 -27 6 -32 3 -38 -19 -8 -35
-31 -54 -46 -39 -20 20 -105 15 -128 -8 -20 -20 -20 -42 0 -115 5 -16 8 -41 7
-54 -2 -19 8 -30 43 -52 60 -37 85 -36 121 3 32 35 37 69 15 88 -20 16 -10 37
21 45 19 4 23 10 18 23 -14 35 -10 47 17 50 21 3 30 -3 42 -27 9 -16 16 -39
16 -51 0 -14 6 -20 24 -20 17 0 27 -8 35 -27 31 -74 41 -85 73 -79 17 3 36 1
43 -4 19 -16 192 -19 213 -4 10 7 43 15 73 17 30 2 66 10 80 17 24 11 29 10
48 -9 31 -31 62 -26 89 15 12 20 22 48 22 63 0 34 26 59 60 60 14 0 40 3 58 7
35 7 72 -15 72 -42 0 -8 15 -21 33 -30 17 -9 45 -30 62 -48 29 -31 30 -31 33
-8 5 33 29 38 53 13 16 -17 24 -20 35 -10 8 6 14 19 14 29 0 25 135 94 170 86
14 -3 48 -9 77 -15 28 -5 60 -14 71 -20 16 -8 25 -6 46 10 22 17 31 19 58 10
18 -5 49 -14 68 -18 28 -7 36 -14 40 -38 5 -27 9 -30 45 -31 72 -3 120 -17
153 -46 40 -34 46 -35 84 -3 16 14 40 25 53 25 13 0 37 8 55 18 30 16 31 16
46 -3 9 -11 19 -26 23 -34 6 -10 19 -11 49 -6 38 6 42 10 48 43 6 31 3 39 -21
59 -23 20 -34 23 -74 18 -39 -5 -43 -4 -26 6 11 7 26 19 33 26 15 14 112 18
127 5 13 -11 104 -40 135 -44 22 -3 25 -8 25 -47 0 -44 1 -45 47 -62 26 -9 49
-14 52 -11 9 9 7 42 -2 42 -9 0 -32 44 -32 60 0 6 11 10 25 10 14 0 28 6 31
14 3 8 26 17 51 21 40 6 48 4 73 -20 23 -22 30 -24 55 -15 22 8 31 7 45 -5 26
-23 47 -18 59 15 5 17 15 30 20 30 6 0 17 -13 26 -30 10 -20 23 -30 38 -30 12
0 35 -7 51 -15 38 -20 51 -19 104 7 39 18 47 19 66 8 44 -29 243 -25 324 6 32
12 47 13 55 5 17 -17 38 -13 65 12 22 21 24 21 36 5 17 -24 42 -23 73 2 42 33
95 6 69 -35 -15 -23 -11 -45 9 -45 14 0 25 21 25 49 0 16 37 41 61 41 5 0 19
-15 30 -34 19 -33 23 -34 87 -38 49 -3 77 1 102 14 50 24 61 24 98 4 38 -19
100 -15 139 10 33 21 61 17 78 -10 23 -35 43 -39 87 -16 21 11 58 20 81 20 24
0 61 9 82 20 22 12 49 18 60 16 25 -7 113 24 120 43 5 12 -4 48 -25 106 -4 12
-45 39 -101 68 -88 45 -99 48 -181 50 -83 2 -89 4 -120 34 -23 22 -47 34 -78
39 -25 3 -56 14 -70 22 -14 9 -38 17 -55 19 -16 1 -51 5 -77 9 -26 3 -62 1
-81 -5 -29 -10 -41 -9 -70 5 -34 16 -37 16 -62 0 -16 -10 -41 -16 -68 -15 -23
2 -62 -1 -85 -5 -27 -5 -74 -3 -122 5 -74 12 -80 11 -126 -11 -27 -13 -62 -23
-79 -22 -71 3 -141 12 -174 24 -44 15 -61 13 -128 -14 -43 -17 -58 -18 -84 -9
-24 8 -42 8 -70 -1 -33 -9 -42 -9 -57 5 -21 19 -48 22 -57 8 -3 -6 -63 -10
-133 -9 -70 0 -174 -3 -232 -6 -72 -5 -117 -3 -143 5 -31 10 -53 10 -110 -1
-40 -7 -105 -12 -145 -11 -40 1 -89 -3 -109 -10 -32 -10 -38 -9 -52 9 -12 15
-33 21 -93 27 l-76 7 -5 36 c-3 20 -9 52 -13 69 -5 27 -2 36 16 51 23 18 23
19 5 49 -17 28 -17 32 -1 54 9 13 16 38 16 57 0 18 9 51 21 74 24 47 20 77
-17 125 -13 17 -24 40 -24 50 0 10 -7 27 -15 37 -9 11 -11 24 -6 30 4 6 11 25
14 43 4 18 22 53 42 79 l36 47 -21 22 c-16 17 -19 29 -14 49 4 16 1 37 -6 52
-11 20 -11 27 3 42 10 10 17 26 17 36 0 14 -7 17 -32 14 -33 -3 -33 -2 -31 38
2 32 -2 45 -22 64 -33 31 -32 41 3 34 19 -4 35 1 52 14 22 17 23 23 12 46 -6
14 -18 26 -26 26 -9 0 -13 8 -10 23 13 59 29 104 46 123 20 23 16 76 -9 105
-8 9 -19 39 -26 65 l-12 49 -61 5 c-39 3 -69 11 -81 23 -24 21 -37 22 -52 3z
m-29 -1541 c8 -30 1 -52 -12 -38 -4 4 -11 23 -15 42 -9 42 15 39 27 -4z m8
-104 c0 -20 -25 -35 -41 -25 -13 8 9 44 26 44 8 0 15 -9 15 -19z m-1401 -194
c6 -8 8 -17 4 -20 -7 -8 -33 11 -33 24 0 13 16 11 29 -4z m483 -89 c-16 -16
-37 4 -28 28 6 16 8 16 23 1 13 -13 15 -19 5 -29z m3649 -15 c10 -27 6 -53 -9
-53 -4 0 -18 18 -30 40 l-21 40 25 0 c17 0 27 -8 35 -27z m-253 -80 c4 -28
-17 -30 -40 -4 -19 22 -13 33 17 29 12 -2 21 -12 23 -25z"/>
<path d="M14381 8431 c-11 -7 -8 -12 12 -26 33 -22 55 -10 31 16 -19 21 -23
22 -43 10z"/>
<path d="M20602 8265 c0 -16 2 -22 5 -12 2 9 2 23 0 30 -3 6 -5 -1 -5 -18z"/>
<path d="M10290 8188 l0 -31 20 23 c21 24 18 40 -6 40 -9 0 -14 -11 -14 -32z"/>
<path d="M14418 7578 c9 -9 15 -9 24 0 9 9 7 12 -12 12 -19 0 -21 -3 -12 -12z"/>
<path d="M14150 7334 c0 -8 5 -12 10 -9 6 4 8 11 5 16 -9 14 -15 11 -15 -7z"/>
<path d="M10696 6991 c-7 -10 22 -37 30 -28 9 8 -3 37 -15 37 -5 0 -12 -4 -15
-9z"/>
<path d="M20292 6658 c4 -37 16 -44 43 -24 19 14 19 15 1 35 -29 32 -48 27
-44 -11z"/>
<path d="M19327 6663 c-4 -3 -7 -15 -7 -25 0 -23 38 -25 47 -2 8 21 -24 43
-40 27z"/>
<path d="M9661 6326 c-14 -17 11 -41 34 -32 21 7 19 23 -4 35 -14 8 -22 7 -30
-3z"/>
<path d="M14245 5220 c-3 -6 4 -14 17 -19 29 -11 35 -6 18 14 -14 17 -26 19
-35 5z"/>
<path d="M20848 4579 c-20 -10 -40 -28 -43 -39 -10 -32 6 -188 20 -200 25 -21
160 -9 152 14 -3 6 2 18 10 27 12 14 9 20 -23 49 -30 26 -35 36 -27 49 5 9 20
17 32 19 12 2 19 7 16 12 -3 4 -14 6 -25 3 -28 -7 -50 14 -50 47 0 37 -17 42
-62 19z"/>
<path d="M21012 4396 c1 -10 8 -17 13 -17 15 1 12 24 -3 29 -9 3 -13 -2 -10
-12z"/>
<path d="M21020 4285 c0 -16 6 -25 15 -25 8 0 15 9 15 19 0 10 -7 21 -15 25
-11 4 -15 -1 -15 -19z"/>
<path d="M20797 4288 c-2 -7 -2 -37 1 -65 3 -34 0 -58 -8 -68 -6 -8 -13 -31
-14 -52 -2 -21 -11 -66 -20 -101 -25 -91 -27 -211 -5 -236 17 -18 17 -20 -13
-56 -29 -37 -30 -42 -25 -110 3 -45 10 -77 21 -89 9 -10 16 -23 16 -29 0 -6
10 -23 23 -39 15 -18 27 -53 35 -101 12 -71 11 -74 -10 -91 l-21 -18 26 -7
c35 -9 34 -32 -2 -51 -24 -12 -30 -23 -33 -52 -2 -30 -7 -37 -20 -35 -10 2
-18 -3 -18 -10 0 -25 26 -87 44 -107 20 -22 15 -49 -14 -76 -25 -23 -25 -50 0
-82 11 -14 20 -31 20 -39 0 -7 8 -26 18 -44 17 -31 17 -31 -7 -51 -21 -17 -22
-23 -13 -44 7 -15 8 -26 2 -30 -20 -12 -9 -41 21 -59 l31 -18 -21 -22 c-25
-27 -27 -58 -5 -92 12 -17 15 -36 10 -63 -4 -28 -2 -42 9 -51 21 -17 19 -37
-5 -43 -29 -8 -27 -47 3 -47 22 0 23 -3 19 -72 -4 -68 -3 -73 21 -92 17 -14
28 -35 33 -63 6 -42 6 -43 -25 -49 -47 -10 -38 -39 22 -69 11 -5 24 -24 29
-41 15 -58 86 -116 187 -151 35 -12 82 -36 103 -53 31 -25 44 -30 68 -25 20 4
37 1 52 -9 12 -9 35 -16 51 -16 20 0 30 -6 34 -19 7 -29 44 -34 75 -11 20 14
35 18 58 13 28 -5 32 -3 28 13 -2 12 -13 20 -28 22 -29 3 -70 22 -70 32 0 10
72 30 108 30 24 0 34 -6 44 -27 16 -33 42 -37 46 -7 5 34 75 56 153 49 35 -4
93 -7 129 -8 62 -2 65 -3 65 -27 0 -19 6 -26 25 -28 14 -2 40 -19 57 -38 l33
-34 37 35 c20 19 43 35 50 35 30 0 103 -25 103 -36 0 -8 13 -9 47 -3 26 5 56
6 67 2 12 -3 57 -5 101 -4 62 1 83 6 93 19 8 11 30 18 60 20 26 1 61 3 77 5
27 2 30 -1 28 -25 -2 -34 16 -36 78 -9 24 10 74 22 111 25 55 5 72 3 100 -13
18 -10 48 -21 66 -25 27 -5 32 -3 32 14 0 12 -7 20 -17 21 -10 1 -2 5 17 9 27
7 42 5 66 -9 17 -10 51 -21 75 -25 39 -6 51 -3 83 19 34 23 51 26 144 30 96 4
108 6 123 27 17 22 18 22 37 4 16 -14 24 -15 41 -6 12 6 36 8 56 4 l35 -6 0
46 c0 34 5 48 18 55 23 12 42 -3 42 -34 0 -32 18 -45 46 -33 31 14 140 -35
159 -72 9 -18 30 -30 72 -44 33 -10 68 -17 79 -14 10 2 35 27 55 57 20 30 49
59 65 66 16 6 40 24 54 38 31 33 73 35 95 5 13 -19 17 -20 24 -9 8 12 11 12
24 0 8 -8 17 -24 21 -36 11 -35 34 -36 41 -2 7 33 27 48 96 74 43 16 49 16 71
1 23 -15 27 -15 51 4 32 25 53 25 67 0 6 -11 21 -20 34 -20 13 0 31 -9 41 -20
17 -19 17 -21 0 -40 -39 -43 14 -68 62 -30 21 17 35 19 73 14 40 -5 51 -3 69
15 11 11 29 21 39 21 10 0 28 13 39 28 11 15 39 34 61 41 36 12 44 12 66 -2
22 -15 25 -15 30 -1 3 9 6 24 6 34 0 11 10 20 28 25 70 17 87 51 58 120 -14
34 -50 51 -126 61 -14 2 -44 6 -66 10 -24 3 -51 1 -62 -5 -15 -8 -32 -6 -68 6
-27 8 -53 20 -59 24 -5 5 -28 9 -52 9 -24 0 -60 7 -79 15 -32 13 -114 18 -264
15 -128 -3 -203 0 -276 10 -63 9 -87 9 -104 0 -32 -17 -331 -29 -407 -17 -53
9 -67 8 -102 -8 -35 -15 -56 -17 -141 -12 -82 5 -107 3 -135 -10 -29 -14 -40
-15 -73 -4 -34 11 -43 11 -72 -4 -31 -16 -35 -16 -70 0 -30 14 -45 15 -72 7
-73 -23 -263 -37 -302 -23 -22 9 -69 2 -144 -21 -26 -7 -52 -6 -108 8 l-75 17
-27 -31 -27 -31 -137 -5 c-75 -2 -143 -8 -149 -12 -7 -4 -35 -8 -63 -10 -28
-1 -67 -6 -86 -11 -19 -5 -48 -6 -63 -2 -16 4 -41 3 -55 -2 -15 -6 -46 -8 -69
-4 -26 4 -51 1 -65 -6 -13 -7 -70 -16 -128 -21 -58 -4 -129 -11 -157 -14 -43
-5 -59 -2 -88 16 -25 16 -44 20 -63 16 -15 -4 -50 -9 -78 -11 -44 -3 -59 1
-98 25 -25 16 -46 36 -46 43 0 7 -11 24 -24 36 -13 13 -27 35 -31 49 -4 15
-14 35 -22 44 -9 10 -13 26 -10 39 3 13 -1 35 -10 50 -15 25 -15 29 6 57 22
32 27 52 12 52 -18 0 -40 95 -36 157 4 51 1 64 -12 72 -15 8 -15 13 -4 37 11
25 10 30 -8 43 -15 12 -18 20 -11 31 16 25 11 37 -15 44 -29 7 -32 18 -10 36
8 7 15 18 15 25 0 7 -7 18 -15 25 -8 7 -15 20 -15 30 0 10 -6 23 -14 30 -17
13 -14 116 4 134 15 15 12 47 -6 67 -9 10 -18 44 -21 78 -5 52 -2 68 21 114
18 38 24 63 20 84 -5 26 -2 32 30 51 30 18 35 25 27 40 -13 25 -42 48 -69 57
-15 4 -21 12 -18 21 3 8 -4 24 -16 36 l-21 21 -19 -23 c-10 -12 -18 -31 -18
-41 0 -10 -6 -19 -13 -19 -24 0 -37 24 -37 67 0 46 17 63 63 63 24 0 26 5 37
84 9 61 9 90 1 104 -6 12 -11 36 -10 54 1 72 -8 205 -15 216 -4 7 -16 12 -26
12 -20 0 -40 27 -40 54 0 26 38 19 42 -6 4 -32 24 -23 21 10 -2 15 2 39 8 54
10 23 7 30 -21 57 -26 24 -38 29 -61 24 -26 -5 -29 -3 -29 20 0 16 -10 34 -26
46 -29 23 -80 28 -87 9z m193 -1538 c0 -4 -7 -10 -15 -14 -18 -7 -37 26 -28
50 6 15 8 15 25 -6 10 -12 18 -26 18 -30z m-23 -156 c7 -20 -11 -38 -31 -31
-9 4 -12 13 -9 26 6 25 31 28 40 5z m150 -110 c-3 -3 -12 -4 -19 -1 -8 3 -5 6
6 6 11 1 17 -2 13 -5z m-67 -299 c0 -8 -4 -15 -10 -15 -5 0 -7 7 -4 15 4 8 8
15 10 15 2 0 4 -7 4 -15z m-45 -35 c11 -17 -3 -28 -30 -22 -32 6 -33 32 -1 32
14 0 28 -4 31 -10z m2206 -373 c-1 -4 -1 -11 -1 -17 0 -13 -37 -13 -45 0 -13
21 3 40 25 32 12 -4 21 -11 21 -15z"/>
<path d="M21066 4024 c-18 -12 -18 -14 -2 -20 21 -8 38 6 28 23 -5 8 -12 8
-26 -3z"/>
<path d="M14700 3945 c0 -14 2 -25 4 -25 2 0 11 -3 20 -6 19 -7 22 26 4 44
-19 19 -28 14 -28 -13z"/>
<path d="M7616 2691 c-9 -14 34 -25 47 -12 8 8 8 11 0 11 -6 0 -18 3 -26 6 -8
3 -18 1 -21 -5z"/>
<path d="M7016 2495 c4 -8 12 -15 20 -15 8 0 11 6 8 15 -4 8 -12 15 -20 15 -8
0 -11 -6 -8 -15z"/>
<path d="M4115 2311 c-3 -5 -1 -12 5 -16 12 -7 30 2 30 16 0 12 -27 12 -35 0z"/>
<path d="M3860 2275 c0 -8 5 -15 11 -15 6 0 17 7 25 15 14 13 13 15 -10 15
-16 0 -26 -6 -26 -15z"/>
<path d="M25643 1953 c-16 -6 -17 -33 -3 -33 11 0 26 28 19 34 -2 2 -10 1 -16
-1z"/>
<path d="M22688 1533 c7 -3 16 -2 19 1 4 3 -2 6 -13 5 -11 0 -14 -3 -6 -6z"/>
</g>
</svg>
